<svg xmlns="http://www.w3.org/2000/svg" width="760" height="420" viewBox="0 0 760 420" font-family="ui-sans-serif,-apple-system,Segoe UI,Roboto,sans-serif">
<rect width="760" height="420" rx="12" fill="#0d1117"/>
<text x="56" y="28" fill="#e6edf3" font-size="16" font-weight="700">Detection quality — threshold sweep (heuristics-only, 25-case golden set)</text><line x1="56" y1="364" x2="620" y2="364" stroke="#21262d" stroke-width="1"/><text x="46" y="368" fill="#8b949e" font-size="11" text-anchor="end">0%</text><line x1="56" y1="300.8" x2="620" y2="300.8" stroke="#21262d" stroke-width="1"/><text x="46" y="304.8" fill="#8b949e" font-size="11" text-anchor="end">20%</text><line x1="56" y1="237.6" x2="620" y2="237.6" stroke="#21262d" stroke-width="1"/><text x="46" y="241.6" fill="#8b949e" font-size="11" text-anchor="end">40%</text><line x1="56" y1="174.4" x2="620" y2="174.4" stroke="#21262d" stroke-width="1"/><text x="46" y="178.4" fill="#8b949e" font-size="11" text-anchor="end">60%</text><line x1="56" y1="111.19999999999999" x2="620" y2="111.19999999999999" stroke="#21262d" stroke-width="1"/><text x="46" y="115.19999999999999" fill="#8b949e" font-size="11" text-anchor="end">80%</text><line x1="56" y1="48" x2="620" y2="48" stroke="#21262d" stroke-width="1"/><text x="46" y="52" fill="#8b949e" font-size="11" text-anchor="end">100%</text><text x="56" y="384" fill="#8b949e" font-size="11" text-anchor="middle">35</text><text x="168.8" y="384" fill="#8b949e" font-size="11" text-anchor="middle">45</text><text x="281.6" y="384" fill="#8b949e" font-size="11" text-anchor="middle">55</text><text x="394.4" y="384" fill="#8b949e" font-size="11" text-anchor="middle">65</text><text x="507.20000000000005" y="384" fill="#8b949e" font-size="11" text-anchor="middle">75</text><text x="620" y="384" fill="#8b949e" font-size="11" text-anchor="middle">85</text><text x="338" y="408" fill="#8b949e" font-size="12" text-anchor="middle">quarantine threshold</text><line x1="338" y1="48" x2="338" y2="364" stroke="#6e7681" stroke-width="1" stroke-dasharray="4 3"/><text x="338" y="42" fill="#d29922" font-size="11" text-anchor="middle" font-weight="600">default 60</text><path d="M56.0 48.0 L112.4 48.0 L168.8 48.0 L225.2 48.0 L281.6 48.0 L338.0 48.0 L394.4 48.0 L450.8 48.0 L507.2 48.0 L563.6 48.0 L620.0 48.0" fill="none" stroke="#3fb950" stroke-width="2.5"/><circle cx="56.0" cy="48.0" r="2.6" fill="#3fb950"/><circle cx="112.4" cy="48.0" r="2.6" fill="#3fb950"/><circle cx="168.8" cy="48.0" r="2.6" fill="#3fb950"/><circle cx="225.2" cy="48.0" r="2.6" fill="#3fb950"/><circle cx="281.6" cy="48.0" r="2.6" fill="#3fb950"/><circle cx="338.0" cy="48.0" r="2.6" fill="#3fb950"/><circle cx="394.4" cy="48.0" r="2.6" fill="#3fb950"/><circle cx="450.8" cy="48.0" r="2.6" fill="#3fb950"/><circle cx="507.2" cy="48.0" r="2.6" fill="#3fb950"/><circle cx="563.6" cy="48.0" r="2.6" fill="#3fb950"/><circle cx="620.0" cy="48.0" r="2.6" fill="#3fb950"/><path d="M56.0 72.3 L112.4 72.3 L168.8 72.3 L225.2 121.0 L281.6 121.0 L338.0 121.0 L394.4 169.7 L450.8 169.7 L507.2 315.3 L563.6 339.7 L620.0 339.7" fill="none" stroke="#58a6ff" stroke-width="2.5"/><circle cx="56.0" cy="72.3" r="2.6" fill="#58a6ff"/><circle cx="112.4" cy="72.3" r="2.6" fill="#58a6ff"/><circle cx="168.8" cy="72.3" r="2.6" fill="#58a6ff"/><circle cx="225.2" cy="121.0" r="2.6" fill="#58a6ff"/><circle cx="281.6" cy="121.0" r="2.6" fill="#58a6ff"/><circle cx="338.0" cy="121.0" r="2.6" fill="#58a6ff"/><circle cx="394.4" cy="169.7" r="2.6" fill="#58a6ff"/><circle cx="450.8" cy="169.7" r="2.6" fill="#58a6ff"/><circle cx="507.2" cy="315.3" r="2.6" fill="#58a6ff"/><circle cx="563.6" cy="339.7" r="2.6" fill="#58a6ff"/><circle cx="620.0" cy="339.7" r="2.6" fill="#58a6ff"/><path d="M56.0 60.6 L112.4 60.6 L168.8 60.6 L225.2 89.1 L281.6 89.1 L338.0 89.1 L394.4 123.2 L450.8 123.2 L507.2 279.6 L563.6 318.8 L620.0 318.8" fill="none" stroke="#d29922" stroke-width="2.5"/><circle cx="56.0" cy="60.6" r="2.6" fill="#d29922"/><circle cx="112.4" cy="60.6" r="2.6" fill="#d29922"/><circle cx="168.8" cy="60.6" r="2.6" fill="#d29922"/><circle cx="225.2" cy="89.1" r="2.6" fill="#d29922"/><circle cx="281.6" cy="89.1" r="2.6" fill="#d29922"/><circle cx="338.0" cy="89.1" r="2.6" fill="#d29922"/><circle cx="394.4" cy="123.2" r="2.6" fill="#d29922"/><circle cx="450.8" cy="123.2" r="2.6" fill="#d29922"/><circle cx="507.2" cy="279.6" r="2.6" fill="#d29922"/><circle cx="563.6" cy="318.8" r="2.6" fill="#d29922"/><circle cx="620.0" cy="318.8" r="2.6" fill="#d29922"/><line x1="644" y1="66" x2="666" y2="66" stroke="#3fb950" stroke-width="3"/><text x="674" y="70" fill="#e6edf3" font-size="12">Precision</text><line x1="644" y1="92" x2="666" y2="92" stroke="#58a6ff" stroke-width="3"/><text x="674" y="96" fill="#e6edf3" font-size="12">Recall</text><line x1="644" y1="118" x2="666" y2="118" stroke="#d29922" stroke-width="3"/><text x="674" y="122" fill="#e6edf3" font-size="12">F1</text><text x="644" y="334" fill="#8b949e" font-size="11">@60: P 100%</text><text x="644" y="350" fill="#8b949e" font-size="11">R 77% · F1 87%</text></svg>